<svg width="244" height="58" viewBox="0 0 244 58" fill="none" xmlns="http://www.w3.org/2000/svg">
<path d="M5.46997 7.23004H7.35995V9.70004H5.46997V23.66H2.76996V9.70004H0.469971V7.23004H2.76996V1.24005H5.46997V7.23004ZM19.49 15.3201V15.92H22.78V18.3801H19.49V21.67C19.49 22.33 19.23 22.82 18.71 23.12C18.19 23.42 17.35 23.58 16.2 23.58H15.36C15.36 23.49 15.35 23.4201 15.35 23.3801C15.35 23.1 15.32 22.89 15.28 22.76C15.24 22.63 15.05 22.08 14.7 21.11C15.22 21.13 15.61 21.16 15.86 21.19C16.05 21.21 16.18 21.2101 16.26 21.2101C16.77 21.2101 17.03 21.08 17.03 20.81V18.37H11.48L11.61 18.47C12.41 19.03 13.34 19.79 14.4 20.75L12.66 22.55C11.96 21.78 11.43 21.24 11.07 20.93C10.71 20.61 10.07 20.12 9.13998 19.44L10.34 18.39H6.48996V15.93H17.02V14.98H19.13V13.7H15.84V15.17H13.46V13.7H10.33V15.33H7.94998V6.19005H13.46V5.46005H7.35995V3.34004H13.46V1.15004H15.84V3.34004H18.26L18.18 3.28004C17.96 3.11004 17.51 2.81004 16.84 2.37004L18.33 1.04004C19.22 1.51004 20.16 2.16004 21.15 2.98004L20.74 3.34004H22.58V5.46005H15.85V6.19005H21.53V15.33H19.5L19.49 15.3201ZM10.32 9.00005H13.45V8.29004H10.32V9.00005ZM10.32 11.72H13.45V10.97H10.32V11.72ZM15.83 9.00005H19.12V8.29004H15.83V9.00005ZM15.83 11.72H19.12V10.97H15.83V11.72Z" fill="#060203"/>
<path d="M28.08 7.34004V2.26004H31.25V7.34004H33.89V1.30005H37.06V7.34004H40.09V1.30005H43.26V7.34004H47.21V10.43H43.26V18.01H33.88V10.43H31.24V19.76H46.23V22.8501H28.07V10.43H25.09V7.34004H28.07H28.08ZM40.09 10.43H37.06V14.91H40.09V10.43Z" fill="#060203"/>
<path d="M50.24 15.13H65.29V18.03H50.24V15.13ZM56.98 4.14999H70.58V7.05H56.66L56.29 9.96001H70.13L69.2 19.82C69.05 21.38 68.59 22.42 67.82 22.96C67.14 23.43 65.96 23.67 64.26 23.67C63.93 23.67 63.21 23.63 62.09 23.54C62.07 22.88 62.02 22.42 61.94 22.13C61.86 21.85 61.65 21.36 61.3 20.67L61.59 20.69C62.32 20.74 62.93 20.77 63.41 20.79C64.36 20.82 64.87 20.84 64.93 20.84C65.48 20.84 65.85 20.72 66.03 20.48C66.21 20.24 66.35 19.72 66.43 18.92L66.99 12.86H53.3L54.47 1.12H57.36L56.99 4.14999H56.98Z" fill="#060203"/>
<path d="M79.27 5.53004V15.26H76.73V8.37004C76.44 8.67004 75.92 9.12005 75.2 9.74005C74.97 9.40005 74.82 9.18005 74.77 9.08005C74.58 8.80005 74.35 8.52004 74.1 8.23004C73.99 8.10004 73.83 7.91004 73.62 7.67004C76.09 5.89004 77.91 3.68004 79.08 1.04004L81.44 2.01004C80.72 3.43004 80 4.61004 79.27 5.53004ZM73.9 21.5201C74.61 20.51 75.12 19.69 75.44 19.05C75.76 18.41 76.16 17.38 76.64 15.97L79.04 16.93C78.66 18.21 78.28 19.24 77.9 20.0201C77.52 20.8001 76.91 21.85 76.07 23.17C75.53 22.67 75.02 22.2601 74.55 21.9601C74.49 21.9101 74.27 21.76 73.9 21.5201ZM92.52 5.97005H83.76C83.16 6.90005 82.26 7.93005 81.06 9.07005C80.78 8.63005 80.56 8.32004 80.39 8.15004C80.23 7.97004 79.87 7.66005 79.32 7.22005C81.23 5.81005 82.64 3.77005 83.55 1.10005L85.96 1.72005C85.62 2.53005 85.36 3.13005 85.17 3.52005H95.83C95.39 5.09005 94.95 6.44005 94.52 7.55005L94.06 8.71005C93.41 8.25005 92.63 7.83005 91.72 7.44005C92.09 6.85005 92.35 6.36004 92.5 5.98004L92.52 5.97005ZM82.48 15.98V20.03C82.48 20.25 82.52 20.4 82.61 20.48C82.69 20.56 82.86 20.59 83.11 20.59C83.29 20.59 83.61 20.6 84.07 20.6301C84.55 20.6501 84.98 20.67 85.38 20.67C85.74 20.67 86.21 20.65 86.78 20.62C87.34 20.6 87.73 20.58 87.97 20.58C88.42 20.58 88.71 20.54 88.83 20.47C88.96 20.39 89.07 20.19 89.18 19.86C89.28 19.5 89.38 18.81 89.48 17.78C89.67 17.89 89.81 17.98 89.91 18.04C90.37 18.31 91.05 18.58 91.97 18.83C91.63 20.6 91.26 21.7401 90.88 22.2401C90.53 22.7101 89.85 22.9901 88.86 23.0701C87.86 23.1601 86.75 23.2 85.52 23.2C83.69 23.2 82.39 23.12 81.63 22.97C80.42 22.72 79.81 21.9801 79.81 20.7401V15.97H82.51L82.48 15.98ZM79.86 12.62C81.27 11.28 82.32 9.64005 82.99 7.72005L85.27 8.51004C84.37 10.73 83.2 12.64 81.78 14.22C81.36 13.74 80.9 13.3301 80.4 12.9901L79.86 12.62ZM85.75 15.28L84.58 15.23C84.5 14.59 84.43 14.1801 84.38 13.9901C84.33 13.8001 84.16 13.37 83.88 12.7C84.96 12.84 85.7 12.92 86.11 12.92C86.43 12.92 86.59 12.8101 86.59 12.6001V6.33005H89.13V13.3C89.07 14.04 88.84 14.5601 88.41 14.8501C87.99 15.1401 87.26 15.29 86.24 15.29C86.16 15.29 86.07 15.29 85.96 15.28C87.05 16.49 87.9 17.62 88.51 18.65L86.3 20.09C85.78 19.14 85.4 18.48 85.16 18.11C84.92 17.74 84.49 17.2 83.88 16.47L85.74 15.28H85.75ZM95.71 13.1001L93.43 14.37C92.62 12.41 91.62 10.6501 90.41 9.07005L92.34 7.82005C93.3 9.12005 93.97 10.07 94.35 10.66C94.73 11.25 95.18 12.06 95.71 13.09V13.1001ZM91.19 17.14L93.26 15.73C94.03 16.74 94.6 17.53 94.96 18.08C95.32 18.63 95.87 19.6001 96.63 20.9901L94.46 22.68C93.61 20.74 92.51 18.89 91.19 17.14Z" fill="#060203"/>
<path d="M113.98 16.5001C116.59 18.2201 118.77 19.8801 120.52 21.5001L118.4 24.0301C118.34 23.9701 118.27 23.9001 118.2 23.8301C116 21.6401 113.75 19.8501 111.45 18.4601L111.28 18.3601L111.14 18.2801L113.03 16.5101H106.43L108.42 18.0001C108.36 18.0701 108.29 18.1501 108.22 18.2301C107.21 19.3001 106.33 20.1501 105.57 20.7801C104.81 21.4101 103.69 22.2201 102.21 23.2101L101.12 23.9001L101.05 23.9501L100.91 24.0301L98.92 21.4201C99.01 21.3701 99.1 21.3201 99.21 21.2801C100.7 20.5201 101.9 19.8001 102.8 19.1301C103.7 18.4601 104.56 17.6401 105.38 16.6801L105.51 16.5201H98.86V13.4401H104.61V9.49007H100.06V6.41006H104.61V1.31006H107.78V6.41006H111.78V1.31006H114.95V6.41006H119.45V9.49007H114.95V13.4401H120.65V16.5201H113.98V16.5001ZM107.77 13.4201H111.77V9.47006H107.77V13.4201Z" fill="#060203"/>
<path d="M139.26 13.89V14.9901H135.58V15.65H143.37V18.11H139.48L141.28 18.76C141.12 19.02 140.98 19.26 140.85 19.45C140.83 19.48 140.67 19.74 140.37 20.22C140.34 20.27 140.29 20.34 140.24 20.42H145.1V22.8801H123.5V20.42H128.18C127.94 19.97 127.57 19.45 127.08 18.84L128.96 18.11H125.27V15.65H133.05V14.9901H128.99V13.8501C127.98 14.2501 127.11 14.5501 126.36 14.7401C125.61 14.9401 124.68 15.1101 123.55 15.2701C123.53 15.17 123.49 14.97 123.44 14.67C123.4 14.37 123.11 13.7501 122.58 12.8201C126.06 12.3301 128.99 11.5001 131.35 10.3201H129.28V1.11005H131.82V10.0701C132.6 9.58005 133.46 8.92005 134.38 8.07005L136.5 9.39005L136.08 9.70004C137.4 10.53 138.76 11.17 140.15 11.61C141.55 12.05 143.47 12.46 145.92 12.83C145.66 13.34 145.45 13.81 145.3 14.23L144.93 15.31C144.43 15.23 144.05 15.17 143.79 15.14C142.55 14.97 141.13 14.58 139.51 13.98L139.26 13.8801V13.89ZM124.69 10V1.98004H127.23V10H124.69ZM130.83 20.42H133.05V18.11H129.53C129.59 18.2 129.65 18.29 129.72 18.39C130.17 18.97 130.54 19.65 130.83 20.43V20.42ZM136.18 0.920044L138.61 1.76004C138.21 2.65004 137.91 3.29005 137.7 3.69005H145.25V6.15004H138.54C138.83 6.33004 139.08 6.48005 139.26 6.58005C140.38 7.23005 141.63 8.09004 143.02 9.14005L141.45 11.18C140.04 9.86004 138.48 8.75004 136.79 7.84004L138.24 6.15004H136.26C135.39 7.16004 134.43 8.04004 133.37 8.81004L131.84 6.86005C132.59 6.31005 133.16 5.82004 133.56 5.39005C133.96 4.96005 134.45 4.29005 135.04 3.38005C135.42 2.78005 135.8 1.97005 136.18 0.940048V0.920044ZM132.04 12.54H136.38C136.02 12.33 135.33 11.89 134.3 11.22C133.38 11.8 132.63 12.23 132.05 12.54H132.04ZM138.82 18.11H135.59V20.42H137.59C137.97 19.89 138.38 19.12 138.82 18.11Z" fill="#060203"/>
<path d="M232.38 23.66H151.5V11.04C151.5 5.23999 156.24 0.5 162.04 0.5H232.38C238.75 0.5 243.96 5.71 243.96 12.08C243.96 18.45 238.75 23.66 232.38 23.66Z" fill="#167543"/>
<path d="M165.72 14.6401L165.59 14.7601C164.8 15.4501 163.89 16.1101 162.86 16.7301C162.81 16.6501 162.78 16.5901 162.76 16.5501C162.6 16.2401 162.45 16.0001 162.3 15.8101C162.26 15.7601 162.21 15.7001 162.17 15.6401C162.29 15.5801 162.56 15.4401 162.98 15.2101C164.45 14.4201 165.78 13.2901 166.98 11.8101H162.56V10.7601H167.72C167.72 10.7601 167.77 10.6801 167.79 10.6501C167.97 10.3301 168.18 9.91007 168.42 9.40007H164.3V8.35008H168.78C168.8 8.29008 168.82 8.22008 168.83 8.16008C168.91 7.89008 169.01 7.50008 169.13 6.97008H163.58V5.92007H169.32C169.37 5.52007 169.42 5.00008 169.47 4.33008L170.73 4.40007L170.69 4.69008L170.62 5.23007C170.58 5.51007 170.55 5.73008 170.53 5.91008H177.21V6.96008H170.32C170.31 7.01008 170.29 7.08008 170.27 7.16008C170.25 7.25008 170.18 7.52007 170.05 7.98007L170 8.17007L169.96 8.33008H176.51V9.38008H169.58L169.54 9.50008C169.36 9.92008 169.17 10.3301 168.96 10.7401H178.23V11.7901H173.76L173.9 11.9701C174.74 13.0201 175.44 13.7501 176 14.1701C176.55 14.5901 177.44 15.0601 178.65 15.5801C178.56 15.7501 178.38 16.0901 178.13 16.6101L178.07 16.7401C176.83 16.1601 175.76 15.4401 174.86 14.5701V20.6801H173.62V20.0001H166.99V20.6801H165.75V14.6101L165.72 14.6401ZM166.96 16.2001H173.59V14.4601H166.96V16.2001ZM166.96 18.9801H173.59V17.2501H166.96V18.9801ZM166.99 13.4101H173.75C173.35 12.9301 172.98 12.4401 172.63 11.9401L172.54 11.8201H168.3C167.94 12.3301 167.5 12.8701 166.99 13.4101Z" fill="white"/>
<path d="M193.02 19.2H184.04V20.31H182.75V5.48999H194.31V20.31H193.02V19.2ZM193.02 11.72V6.62999H184.04V11.72H193.02ZM193.02 18.05V12.86H184.04V18.05H193.02Z" fill="white"/>
<path d="M204.11 12.1201H200.37V10.9801H204.28L204.94 6.72008H199.52V5.58008H213.84V6.72008H206.25L205.62 10.9801H211.78V18.3701H214.69V19.5101H198.69V18.3701H203.16L204.11 12.1201ZM205.44 12.1201L204.52 18.3701H210.47V12.1201H205.44Z" fill="white"/>
<path d="M219.16 13.22C219.1 13.28 219.02 13.36 218.93 13.45C218.72 13.68 218.24 14.11 217.5 14.73C217.29 14.27 217.04 13.87 216.76 13.53C218.48 12.37 219.87 10.75 220.92 8.68002L222.09 9.32004L221.95 9.55003C221.45 10.35 220.98 11.02 220.53 11.58C220.5 11.61 220.48 11.64 220.47 11.66L220.43 11.7V20.72H219.14V13.23L219.16 13.22ZM216.82 8.66003C218.46 7.63003 219.8 6.16003 220.84 4.28003L221.98 4.88004C221.92 4.97004 221.82 5.11003 221.69 5.31003C221.07 6.24003 220.45 7.04004 219.82 7.71004C219.19 8.38004 218.44 9.06004 217.57 9.74004C217.33 9.30004 217.09 8.94002 216.83 8.65002L216.82 8.66003ZM228.27 11.11H223.14V9.91003H232.9V11.11H229.56V19.55C229.56 20.03 229.33 20.36 228.86 20.54C228.78 20.56 228.57 20.6 228.24 20.64C227.9 20.68 227.65 20.7 227.49 20.7L226.72 20.67H225.93C225.88 20.23 225.78 19.8 225.63 19.39C225.91 19.39 226.28 19.4 226.75 19.43C226.97 19.45 227.2 19.46 227.41 19.46C227.76 19.46 227.99 19.42 228.1 19.35C228.21 19.28 228.26 19.14 228.26 18.92V11.11H228.27ZM232.08 6.59003H223.97V5.39003H232.08V6.59003Z" fill="white"/>
<path d="M121.66 57.4299L129.43 43.96H113.89L121.66 57.4299Z" fill="#167543"/>
</svg>
