<svg width="94" height="21" viewBox="0 0 94 21" fill="none" xmlns="http://www.w3.org/2000/svg">
<path fill-rule="evenodd" clip-rule="evenodd" d="M39.91 10.06C39.91 10.06 41.81 9.40999 41.81 7.25999C41.81 4.73999 40.02 3.48999 37.57 3.48999H31.13V17.19H38.13C40.28 17.19 42.4 15.68 42.4 13.38C42.4 10.64 39.92 10.08 39.92 10.06H39.91ZM34.48 6.32999H36.98C37.76 6.32999 38.27 6.84999 38.27 7.61999C38.27 8.21999 37.8 8.86999 36.91 8.86999H34.48V6.32999ZM37 14.33H34.48V11.64H36.94C38.17 11.64 38.75 12.18 38.75 12.98C38.75 13.97 38.02 14.34 37 14.34V14.33Z" fill="#D71618"/>
<path fill-rule="evenodd" clip-rule="evenodd" d="M49.8 3.15002C45.84 3.15002 43.51 6.32002 43.51 10.32C43.51 14.32 45.84 17.5 49.8 17.5C53.76 17.5 56.09 14.35 56.09 10.32C56.09 6.29002 53.78 3.15002 49.8 3.15002ZM49.8 14.22C47.86 14.22 46.89 12.47 46.89 10.32C46.89 8.17002 47.86 6.44003 49.8 6.44003C51.74 6.44003 52.73 8.19002 52.73 10.32C52.73 12.5 51.74 14.22 49.8 14.22Z" fill="#D71618"/>
<path fill-rule="evenodd" clip-rule="evenodd" d="M63.4 8.88L62.93 8.77C61.77 8.53 60.84 8.23 60.84 7.39C60.84 6.49 61.72 6.12 62.5 6.12C63.64 6.12 64.6499 6.68 65.2999 7.39L67.43 5.28C66.46 4.18 64.89 3.13 62.43 3.13C59.54 3.13 57.35 4.75001 57.35 7.44001C57.35 9.90001 59.12 11.1 61.27 11.56L61.74 11.67C63.53 12.04 64.2 12.32 64.2 13.18C64.2 14.04 63.47 14.54 62.35 14.54C61.01 14.54 59.81 13.96 58.88 12.77L56.7 14.92C57.91 16.36 59.44 17.48 62.39 17.48C64.95 17.48 67.6899 16.01 67.6899 13.02C67.7299 9.9 65.36 9.29 63.4 8.88Z" fill="#D71618"/>
<path fill-rule="evenodd" clip-rule="evenodd" d="M75.36 14.22C73.85 14.22 72.28 12.97 72.28 10.23C72.28 7.80004 73.75 6.44004 75.27 6.44004C76.48 6.44004 77.19 7.00004 77.75 7.97004L80.51 6.14004C79.13 4.05004 77.49 3.17004 75.23 3.17004C71.09 3.17004 68.85 6.38004 68.85 10.26C68.85 14.33 71.33 17.52 75.18 17.52C77.89 17.52 79.19 16.57 80.59 14.55L77.81 12.68C77.25 13.58 76.65 14.23 75.35 14.23L75.36 14.22Z" fill="#D71618"/>
<path fill-rule="evenodd" clip-rule="evenodd" d="M89.71 3.48999V8.52999H85.5499V3.48999H81.95V17.19H85.5499V11.79H89.71V17.19H93.2999V3.48999H89.71Z" fill="#D71618"/>
<path d="M10.39 0C4.66 0 0 4.65 0 10.39C0 16.13 4.65 20.78 10.39 20.78C16.13 20.78 20.78 16.13 20.78 10.39C20.78 4.65 16.13 0 10.39 0ZM10.39 19.8C5.2 19.8 0.970001 15.58 0.970001 10.38C0.970001 5.18 5.19 0.960001 10.39 0.960001C15.59 0.960001 19.81 5.18 19.81 10.38C19.81 15.58 15.59 19.8 10.39 19.8Z" fill="#211613"/>
<path d="M14.68 3.90002H13.97V7.46002H6.84V3.90002H6.10999C4.01999 5.30002 2.62 7.67002 2.62 10.39C2.62 13.11 4.01999 15.47 6.10999 16.88H6.84V13.33H13.97V16.88H14.68C16.79 15.48 18.17 13.11 18.17 10.39C18.17 7.67002 16.79 5.31002 14.68 3.90002ZM5.84999 15.47C4.40999 14.2 3.56999 12.37 3.56999 10.39C3.56999 8.41002 4.40999 6.58002 5.84999 5.31002V15.48V15.47ZM13.97 12.32H6.84V8.42002H13.97V12.32ZM14.94 15.45V13.3V7.46002V5.31002C16.36 6.58002 17.2 8.41002 17.2 10.37C17.2 12.33 16.36 14.18 14.94 15.45Z" fill="#211613"/>
</svg>
